<svg display="none" xmlns="http://www.w3.org/2000/svg">
	<symbol id="instagram" viewBox="0 0 70 70">
		<path d="M22.7499 5.8335H47.2499C56.5833 5.8335 64.1666 13.4168 64.1666 22.7502V47.2502C64.1666 51.7367 62.3843 56.0396 59.2118 59.2121C56.0393 62.3845 51.7365 64.1668 47.2499 64.1668H22.7499C13.4166 64.1668 5.83325 56.5835 5.83325 47.2502V22.7502C5.83325 18.2636 7.61554 13.9608 10.788 10.7883C13.9605 7.61578 18.2633 5.8335 22.7499 5.8335ZM22.1666 11.6668C19.3818 11.6668 16.7111 12.7731 14.742 14.7422C12.7728 16.7113 11.6666 19.3821 11.6666 22.1668V47.8335C11.6666 53.6377 16.3624 58.3335 22.1666 58.3335H47.8333C50.618 58.3335 53.2887 57.2273 55.2579 55.2581C57.227 53.289 58.3333 50.6183 58.3333 47.8335V22.1668C58.3333 16.3627 53.6374 11.6668 47.8333 11.6668H22.1666ZM50.3124 16.0418C51.2794 16.0418 52.2067 16.4259 52.8904 17.1097C53.5741 17.7934 53.9583 18.7207 53.9583 19.6877C53.9583 20.6546 53.5741 21.5819 52.8904 22.2657C52.2067 22.9494 51.2794 23.3335 50.3124 23.3335C49.3455 23.3335 48.4181 22.9494 47.7344 22.2657C47.0507 21.5819 46.6666 20.6546 46.6666 19.6877C46.6666 18.7207 47.0507 17.7934 47.7344 17.1097C48.4181 16.4259 49.3455 16.0418 50.3124 16.0418ZM34.9999 20.4168C38.8677 20.4168 42.577 21.9533 45.3119 24.6882C48.0468 27.4231 49.5833 31.1324 49.5833 35.0002C49.5833 38.8679 48.0468 42.5772 45.3119 45.3121C42.577 48.047 38.8677 49.5835 34.9999 49.5835C31.1322 49.5835 27.4229 48.047 24.6879 45.3121C21.953 42.5772 20.4166 38.8679 20.4166 35.0002C20.4166 31.1324 21.953 27.4231 24.6879 24.6882C27.4229 21.9533 31.1322 20.4168 34.9999 20.4168ZM34.9999 26.2502C32.6793 26.2502 30.4537 27.172 28.8127 28.813C27.1718 30.4539 26.2499 32.6795 26.2499 35.0002C26.2499 37.3208 27.1718 39.5464 28.8127 41.1873C30.4537 42.8283 32.6793 43.7502 34.9999 43.7502C37.3206 43.7502 39.5462 42.8283 41.1871 41.1873C42.828 39.5464 43.7499 37.3208 43.7499 35.0002C43.7499 32.6795 42.828 30.4539 41.1871 28.813C39.5462 27.172 37.3206 26.2502 34.9999 26.2502Z" />
	</symbol>
	<symbol id="telegram" viewBox="0 0 70 70">
		<path fill-rule="evenodd" clip-rule="evenodd" d="M16.8817 40.8915C17.0078 40.9304 17.1365 40.9606 17.2667 40.982C18.0919 42.9264 18.9124 44.8728 19.7284 46.8211C21.1954 50.327 22.6742 53.9378 22.9979 54.9761C23.4034 56.2536 23.8292 57.1228 24.2959 57.7178C24.5379 58.0211 24.815 58.2895 25.1417 58.4936C25.3132 58.5976 25.495 58.6836 25.6842 58.7503C26.6175 59.1003 27.4692 58.9545 28.0029 58.7765C28.3163 58.67 28.6144 58.523 28.8896 58.3391L28.9042 58.3332L37.1467 53.194L46.6696 60.4915C46.8096 60.5985 46.9613 60.6889 47.1246 60.7628C48.2679 61.2586 49.3763 61.4336 50.4204 61.2936C51.4588 61.1478 52.2842 60.7132 52.8996 60.2203C53.6056 59.6501 54.1689 58.9231 54.5446 58.097L54.5709 58.0328L54.5796 58.0095L54.5854 57.9978V57.992L54.5884 57.989C54.6362 57.8626 54.6752 57.733 54.705 57.6011L63.3967 13.7782C63.4207 13.6375 63.4344 13.4951 63.4375 13.3524C63.4375 12.069 62.9534 10.847 61.8188 10.109C60.8446 9.47613 59.7625 9.44696 59.0771 9.49946C58.3421 9.55779 57.6596 9.73863 57.2017 9.88446C56.9458 9.96708 56.6929 10.0585 56.4434 10.1586L56.4113 10.1732L7.66211 29.2949L7.65627 29.2978C7.49096 29.3575 7.32843 29.4247 7.16919 29.499C6.78247 29.6726 6.41163 29.8794 6.06086 30.1174C5.39877 30.5695 3.87336 31.812 4.13294 33.8653C4.33711 35.4986 5.45711 36.5049 6.14252 36.989C6.51586 37.2545 6.87169 37.444 7.13419 37.5695C7.25086 37.6278 7.50169 37.727 7.60961 37.7736L7.63877 37.7824L16.8817 40.8915ZM58.1175 14.1982H58.1117L58.0359 14.2303L9.22836 33.3782L9.15252 33.4074L9.12336 33.4161C9.03399 33.4507 8.94639 33.4896 8.86086 33.5328C8.94241 33.5786 9.02612 33.6205 9.11169 33.6582L18.2759 36.744C18.4377 36.804 18.5938 36.8782 18.7425 36.9657L49.0088 19.247L49.0379 19.2324C49.1561 19.162 49.2768 19.0959 49.3996 19.034C49.6096 18.9261 49.945 18.7686 50.3242 18.652C50.5867 18.5703 51.3654 18.3399 52.2054 18.6111C52.6517 18.7503 53.0495 19.0129 53.3529 19.3684C53.6564 19.724 53.8531 20.1581 53.9204 20.6207C54.0291 21.0254 54.0321 21.4512 53.9292 21.8574C53.725 22.6595 53.165 23.2836 52.6546 23.762C52.2171 24.1703 46.5413 29.642 40.9442 35.0436L33.3229 42.3936L31.9667 43.7061L49.0934 56.837C49.3246 56.9335 49.5756 56.9735 49.8254 56.9536C49.9513 56.9364 50.0696 56.8838 50.1667 56.802C50.2848 56.702 50.3862 56.5838 50.4671 56.452L50.4729 56.449L58.9021 13.9445C58.637 14.0097 58.3767 14.0936 58.1234 14.1953L58.1175 14.1982ZM33.4396 50.3474L30.0213 47.7282L29.1929 52.9928L33.4396 50.3474ZM26.8859 42.5307L30.2838 39.2495L37.905 31.8936L40.7429 29.1578L21.7263 40.2907L21.8284 40.5299C23.0277 43.3632 24.2138 46.2021 25.3867 49.0465L26.2121 43.7965C26.2875 43.3098 26.5249 42.8657 26.8859 42.5307Z" />
	</symbol>
	<symbol id="wechat" viewBox="0 0 24 24">
		<path d="M15.85 8.14C16.24 8.14 16.62 8.17 16.99 8.22C16.31 5.25 13.19 3 9.43999 3C5.18999 3 1.73999 5.88 1.73999 9.43C1.73999 11.48 2.88999 13.29 4.67999 14.47L3.66999 16.5L6.42999 15.31C7.01999 15.52 7.63999 15.69 8.29999 15.78C8.20999 15.39 8.15999 14.99 8.15999 14.57C8.14999 11.03 11.6 8.14 15.85 8.14ZM12 5.89C12.1261 5.89 12.2509 5.91483 12.3674 5.96308C12.4838 6.01132 12.5897 6.08203 12.6788 6.17118C12.768 6.26032 12.8387 6.36615 12.8869 6.48262C12.9352 6.5991 12.96 6.72393 12.96 6.85C12.96 6.97607 12.9352 7.1009 12.8869 7.21738C12.8387 7.33385 12.768 7.43968 12.6788 7.52882C12.5897 7.61797 12.4838 7.68868 12.3674 7.73692C12.2509 7.78517 12.1261 7.81 12 7.81C11.7454 7.81 11.5012 7.70886 11.3212 7.52882C11.1411 7.34879 11.04 7.10461 11.04 6.85C11.04 6.59539 11.1411 6.35121 11.3212 6.17118C11.5012 5.99114 11.7454 5.89 12 5.89ZM6.86999 7.82C6.61538 7.82 6.3712 7.71886 6.19117 7.53882C6.01113 7.35879 5.90999 7.11461 5.90999 6.86C5.90999 6.60539 6.01113 6.36121 6.19117 6.18118C6.3712 6.00114 6.61538 5.9 6.86999 5.9C7.1246 5.9 7.36878 6.00114 7.54881 6.18118C7.72885 6.36121 7.82999 6.60539 7.82999 6.86C7.82999 7.11461 7.72885 7.35879 7.54881 7.53882C7.36878 7.71886 7.1246 7.82 6.86999 7.82Z" />
		<path d="M22.2599 14.5702C22.2599 11.7302 19.3899 9.43018 15.8499 9.43018C12.3099 9.43018 9.43994 11.7302 9.43994 14.5702C9.43994 17.4102 12.3099 19.7102 15.8499 19.7102C16.4299 19.7102 16.9899 19.6302 17.5199 19.5102L20.9799 21.0002L19.7799 18.6002C21.2799 17.6602 22.2599 16.2202 22.2599 14.5702ZM13.9199 14.2502C13.7301 14.2502 13.5445 14.1939 13.3866 14.0884C13.2287 13.9829 13.1057 13.833 13.033 13.6576C12.9604 13.4821 12.9413 13.2891 12.9784 13.1029C13.0154 12.9167 13.1069 12.7456 13.2411 12.6114C13.3754 12.4771 13.5464 12.3857 13.7327 12.3486C13.9189 12.3116 14.1119 12.3306 14.2873 12.4033C14.4627 12.4759 14.6127 12.599 14.7182 12.7568C14.8236 12.9147 14.8799 13.1003 14.8799 13.2902C14.8899 13.8202 14.4499 14.2502 13.9199 14.2502ZM17.7699 14.2502C17.5153 14.2502 17.2712 14.149 17.0911 13.969C16.9111 13.789 16.8099 13.5448 16.8099 13.2902C16.8099 13.0356 16.9111 12.7914 17.0911 12.6114C17.2712 12.4313 17.5153 12.3302 17.7699 12.3302C18.0246 12.3302 18.2687 12.4313 18.4488 12.6114C18.6288 12.7914 18.7299 13.0356 18.7299 13.2902C18.7299 13.5448 18.6288 13.789 18.4488 13.969C18.2687 14.149 18.0246 14.2502 17.7699 14.2502Z" />
	</symbol>
</svg>
