<svg width="60" height="18" viewBox="0 0 60 18" fill="none" xmlns="http://www.w3.org/2000/svg">
<path d="M37.0234 13.9586C33.6313 16.4552 28.7196 17.7881 24.4875 17.7881C18.8338 17.8164 13.3731 15.733 9.17502 11.9461C8.86002 11.6602 9.14585 11.2694 9.52502 11.4911C13.8854 14.0286 19.2754 15.554 24.8434 15.554C28.6 15.554 32.73 14.7782 36.5304 13.1652C37.1021 12.9202 37.5834 13.5415 37.0234 13.9586Z" fill="white"/>
<path d="M38.4291 12.3452C38.8666 12.8994 37.9478 15.189 37.5395 16.2098C37.417 16.519 37.6824 16.6444 37.9624 16.4111C39.7824 14.8886 40.2491 11.7036 39.8787 11.2427C39.5083 10.7819 36.3291 10.3911 34.3924 11.7561C34.092 11.9632 34.1416 12.2519 34.4741 12.214C35.5678 12.0827 37.9974 11.7911 38.4291 12.3452ZM34.5499 2.13107V0.803983C34.5499 0.602733 34.7045 0.468567 34.8853 0.468567H40.8208C41.0103 0.468567 41.162 0.60565 41.162 0.803983V1.94148C41.162 2.13107 41.0016 2.37898 40.7158 2.77273L37.6416 7.16232C38.7849 7.13315 39.9895 7.30524 41.0249 7.88857C41.2583 8.01982 41.3224 8.21232 41.3428 8.40482V9.8194C41.3428 10.0119 41.127 10.2365 40.9053 10.1198C39.9353 9.62037 38.8596 9.36078 37.7685 9.36281C36.6774 9.36484 35.6027 9.62843 34.6345 10.1315C34.4303 10.2423 34.2145 10.0177 34.2145 9.82523V8.48357C34.2145 8.26773 34.2145 7.90024 34.4333 7.57065L37.9916 2.46648H34.8912C34.7016 2.46648 34.547 2.3294 34.547 2.13398M12.9053 10.3998H11.097C11.0164 10.3937 10.9404 10.3598 10.8819 10.304C10.8234 10.2482 10.786 10.1738 10.7762 10.0936V0.827317C10.7762 0.640651 10.9308 0.494816 11.1262 0.494816H12.8091C12.9841 0.50065 13.1241 0.637733 13.1358 0.803983V2.0144H13.1678C13.6053 0.844816 14.4337 0.299401 15.5449 0.299401C16.6766 0.299401 17.3824 0.844816 17.8899 2.0144C18.0702 1.50116 18.4089 1.05848 18.8571 0.75023C19.3053 0.441981 19.8399 0.284111 20.3837 0.299401C20.7868 0.292221 21.1859 0.38011 21.5488 0.555947C21.9116 0.731783 22.2279 0.99062 22.472 1.31149C23.0437 2.09024 22.927 3.22482 22.927 4.21648V10.0644C22.9262 10.1095 22.9166 10.1539 22.8985 10.1952C22.8805 10.2366 22.8545 10.2739 22.8219 10.3051C22.7894 10.3362 22.751 10.3607 22.7089 10.3769C22.6669 10.3932 22.6221 10.401 22.577 10.3998H20.7745C20.6882 10.3941 20.6071 10.3567 20.5468 10.2948C20.4865 10.2328 20.4513 10.1508 20.4478 10.0644V5.15273C20.4478 4.7619 20.4828 3.78774 20.3983 3.41732C20.2641 2.79607 19.8587 2.62107 19.3366 2.62107C18.8991 2.62107 18.4441 2.91273 18.2574 3.3794C18.0708 3.84607 18.0912 4.62773 18.0912 5.15273V10.0644C18.0904 10.1095 18.0807 10.1539 18.0627 10.1952C18.0447 10.2366 18.0186 10.2739 17.9861 10.3051C17.9535 10.3362 17.9151 10.3607 17.8731 10.3769C17.8311 10.3932 17.7862 10.401 17.7412 10.3998H15.9416C15.8551 10.3954 15.7736 10.3583 15.7135 10.296C15.6534 10.2337 15.6192 10.1509 15.6178 10.0644L15.6149 5.15273C15.6149 4.12023 15.7841 2.60065 14.5037 2.60065C13.2058 2.60065 13.2553 4.08232 13.2553 5.15273V10.0644C13.2546 10.1095 13.2449 10.1539 13.2269 10.1952C13.2088 10.2366 13.1828 10.2739 13.1502 10.3051C13.1177 10.3362 13.0793 10.3607 13.0373 10.3769C12.9952 10.3932 12.9504 10.401 12.9053 10.3998ZM46.2749 0.299401C48.9524 0.299401 50.402 2.60065 50.402 5.52607C50.402 8.3494 48.7978 10.5923 46.272 10.5923C43.6412 10.5923 42.2091 8.29107 42.2091 5.4269C42.2091 2.5394 43.6616 0.299401 46.2749 0.299401ZM46.2837 2.1894C44.9537 2.1894 44.8691 4.00357 44.8691 5.13523C44.8691 6.2669 44.8516 8.68482 46.2691 8.68482C47.6691 8.68482 47.7333 6.73065 47.7333 5.54357C47.7333 4.7619 47.7041 3.82857 47.4649 3.08773C47.2608 2.44315 46.8583 2.1894 46.2837 2.1894ZM53.8758 10.3998H52.0762C51.9904 10.3934 51.91 10.3557 51.8503 10.2939C51.7906 10.232 51.7558 10.1503 51.7524 10.0644L51.7495 0.795235C51.7597 0.71045 51.8013 0.63256 51.8661 0.576942C51.9309 0.521324 52.0142 0.492019 52.0995 0.494816H53.7708C53.8448 0.498504 53.9158 0.525635 53.9735 0.572291C54.0312 0.618947 54.0725 0.682719 54.0916 0.754402V2.16898H54.1266C54.6312 0.903151 55.3399 0.299401 56.5883 0.299401C57.3962 0.299401 58.1866 0.591067 58.6941 1.39023C59.1666 2.13107 59.1666 3.3794 59.1666 4.27773V10.1082C59.1527 10.1905 59.1097 10.2652 59.0455 10.3187C58.9813 10.3722 58.9001 10.401 58.8166 10.3998H57.0083C56.9298 10.3943 56.8554 10.3626 56.7972 10.3096C56.739 10.2567 56.7003 10.1857 56.6874 10.1082V5.07399C56.6874 4.0619 56.8041 2.58023 55.5587 2.58023C55.1212 2.58023 54.7128 2.8719 54.5145 3.32107C54.2608 3.8869 54.2287 4.44982 54.2287 5.07399V10.0644C54.2249 10.1552 54.186 10.2409 54.1201 10.3035C54.0542 10.3661 53.9666 10.4007 53.8758 10.3998ZM29.822 5.97524V5.5844C28.5124 5.5844 27.1358 5.86148 27.1358 7.40148C27.1358 8.18023 27.5412 8.70815 28.2353 8.70815C28.7399 8.70815 29.1978 8.39607 29.4837 7.88857C29.8395 7.2644 29.822 6.67815 29.822 5.97524ZM31.642 10.3736C31.5837 10.4229 31.5118 10.4535 31.4359 10.4613C31.3599 10.4691 31.2833 10.4538 31.2162 10.4173C30.6153 9.92148 30.5074 9.68815 30.1778 9.21273C29.1862 10.2248 28.4862 10.5252 27.2028 10.5252C25.6833 10.5252 24.502 9.5919 24.502 7.71357C24.502 6.2494 25.2924 5.24898 26.427 4.7619C27.407 4.33023 28.7749 4.2544 29.822 4.13482V3.90148C29.822 3.47273 29.8512 2.96523 29.6003 2.59482C29.3816 2.26232 28.9587 2.12523 28.5853 2.12523C27.8999 2.12523 27.2874 2.47523 27.1358 3.20732C27.1066 3.37065 26.987 3.53107 26.8208 3.53982L25.0708 3.35023C24.9249 3.31815 24.7587 3.19857 24.8024 2.97107C25.2049 0.85065 27.1241 0.208984 28.842 0.208984C29.717 0.208984 30.8662 0.442318 31.5603 1.11023C32.4383 1.9269 32.3537 3.02357 32.3537 4.21357V7.02815C32.3537 7.87399 32.7037 8.2444 33.0362 8.70232C33.1499 8.86273 33.1762 9.05815 33.0274 9.18065C32.6599 9.48982 32.0066 10.0586 31.6449 10.3794L31.642 10.3736ZM6.15325 5.97524V5.5844C4.84659 5.5844 3.46992 5.86148 3.46992 7.40148C3.46992 8.18023 3.87242 8.70815 4.56659 8.70815C5.07409 8.70815 5.52909 8.39607 5.81492 7.88857C6.17075 7.2644 6.15325 6.67815 6.15325 5.97524ZM7.97325 10.3736C7.91494 10.4229 7.84308 10.4535 7.7671 10.4613C7.69112 10.4691 7.61455 10.4538 7.54742 10.4173C6.94659 9.92148 6.84159 9.68815 6.512 9.21273C5.52034 10.2248 4.82034 10.5252 3.537 10.5252C2.01742 10.5252 0.833252 9.5919 0.833252 7.71357C0.833252 6.2494 1.62659 5.24898 2.75825 4.7619C3.73825 4.33023 5.10617 4.2544 6.15325 4.13482V3.90148C6.15325 3.47273 6.18534 2.96523 5.9345 2.59482C5.71284 2.26232 5.29284 2.12523 4.92242 2.12523C4.23409 2.12523 3.61867 2.47523 3.46992 3.20732C3.44075 3.37065 3.31825 3.53107 3.15784 3.53982L1.40492 3.35023C1.25909 3.31815 1.09575 3.19857 1.13659 2.97107C1.53909 0.85065 3.45534 0.208984 5.17325 0.208984C6.05117 0.208984 7.20034 0.442318 7.89159 1.11023C8.7695 1.9269 8.68784 3.02357 8.68784 4.21357V7.02815C8.68784 7.87399 9.03784 8.2444 9.36742 8.70232C9.48409 8.86273 9.51033 9.05815 9.36158 9.18065C8.99408 9.48982 8.34075 10.0586 7.97908 10.3794L7.97325 10.3736Z" fill="white"/>
</svg>
