<svg width="70" height="70" viewBox="0 0 70 70" fill="none" xmlns="http://www.w3.org/2000/svg">
<path fill-rule="evenodd" clip-rule="evenodd" d="M56.8605 9.13805C57.5067 8.74929 58.2785 8.62599 59.0137 8.79403C59.749 8.96207 60.3905 9.40838 60.8038 10.0393L63.6913 14.4435C64.0677 15.0188 64.2288 15.7086 64.146 16.3912C64.0633 17.0737 63.7421 17.7051 63.2392 18.1739L63.2304 18.1856L63.1896 18.2235L63.0234 18.3781L62.3671 19.0051C58.736 22.5275 55.2149 26.1614 51.8088 29.9018C45.4009 36.9485 37.7913 46.171 32.6696 55.1193C31.2404 57.616 27.7492 58.1526 25.6784 55.9972L6.76378 36.3447C6.49272 36.063 6.28107 35.7296 6.14141 35.3644C6.00175 34.9993 5.93694 34.6098 5.95081 34.219C5.96469 33.8283 6.05698 33.4444 6.22219 33.09C6.3874 32.7357 6.62217 32.4182 6.91253 32.1564L12.6292 26.9997C13.1316 26.5468 13.7757 26.2826 14.4515 26.2522C15.1272 26.2219 15.7924 26.4274 16.3334 26.8335L25.9846 34.0697C41.0609 19.2035 49.6096 13.4985 56.8605 9.13805Z" fill="#794CAB"/>
</svg>
