<svg width="70" height="70" viewBox="0 0 70 70" fill="none" xmlns="http://www.w3.org/2000/svg">
<path fill-rule="evenodd" clip-rule="evenodd" d="M16.8817 40.8915C17.0078 40.9304 17.1365 40.9606 17.2667 40.982C18.0919 42.9264 18.9124 44.8728 19.7284 46.8211C21.1954 50.327 22.6742 53.9378 22.9979 54.9761C23.4034 56.2536 23.8292 57.1228 24.2959 57.7178C24.5379 58.0211 24.815 58.2895 25.1417 58.4936C25.3132 58.5976 25.495 58.6836 25.6842 58.7503C26.6175 59.1003 27.4692 58.9545 28.0029 58.7765C28.3163 58.67 28.6144 58.523 28.8896 58.3391L28.9042 58.3332L37.1467 53.194L46.6696 60.4915C46.8096 60.5985 46.9613 60.6889 47.1246 60.7628C48.2679 61.2586 49.3763 61.4336 50.4204 61.2936C51.4588 61.1478 52.2842 60.7132 52.8996 60.2203C53.6056 59.6501 54.1689 58.9231 54.5446 58.097L54.5709 58.0328L54.5796 58.0095L54.5854 57.9978V57.992L54.5884 57.989C54.6362 57.8626 54.6752 57.733 54.705 57.6011L63.3967 13.7782C63.4207 13.6375 63.4344 13.4951 63.4375 13.3524C63.4375 12.069 62.9534 10.847 61.8188 10.109C60.8446 9.47613 59.7625 9.44696 59.0771 9.49946C58.3421 9.55779 57.6596 9.73863 57.2017 9.88446C56.9458 9.96708 56.6929 10.0585 56.4434 10.1586L56.4113 10.1732L7.66211 29.2949L7.65627 29.2978C7.49096 29.3575 7.32843 29.4247 7.16919 29.499C6.78247 29.6726 6.41163 29.8794 6.06086 30.1174C5.39877 30.5695 3.87336 31.812 4.13294 33.8653C4.33711 35.4986 5.45711 36.5049 6.14252 36.989C6.51586 37.2545 6.87169 37.444 7.13419 37.5695C7.25086 37.6278 7.50169 37.727 7.60961 37.7736L7.63877 37.7824L16.8817 40.8915ZM58.1175 14.1982H58.1117L58.0359 14.2303L9.22836 33.3782L9.15252 33.4074L9.12336 33.4161C9.03399 33.4507 8.94639 33.4896 8.86086 33.5328C8.94241 33.5786 9.02612 33.6205 9.11169 33.6582L18.2759 36.744C18.4377 36.804 18.5938 36.8782 18.7425 36.9657L49.0088 19.247L49.0379 19.2324C49.1561 19.162 49.2768 19.0959 49.3996 19.034C49.6096 18.9261 49.945 18.7686 50.3242 18.652C50.5867 18.5703 51.3654 18.3399 52.2054 18.6111C52.6517 18.7503 53.0495 19.0129 53.3529 19.3684C53.6564 19.724 53.8531 20.1581 53.9204 20.6207C54.0291 21.0254 54.0321 21.4512 53.9292 21.8574C53.725 22.6595 53.165 23.2836 52.6546 23.762C52.2171 24.1703 46.5413 29.642 40.9442 35.0436L33.3229 42.3936L31.9667 43.7061L49.0934 56.837C49.3246 56.9335 49.5756 56.9735 49.8254 56.9536C49.9513 56.9364 50.0696 56.8838 50.1667 56.802C50.2848 56.702 50.3862 56.5838 50.4671 56.452L50.4729 56.449L58.9021 13.9445C58.637 14.0097 58.3767 14.0936 58.1234 14.1953L58.1175 14.1982ZM33.4396 50.3474L30.0213 47.7282L29.1929 52.9928L33.4396 50.3474ZM26.8859 42.5307L30.2838 39.2495L37.905 31.8936L40.7429 29.1578L21.7263 40.2907L21.8284 40.5299C23.0277 43.3632 24.2138 46.2021 25.3867 49.0465L26.2121 43.7965C26.2875 43.3098 26.5249 42.8657 26.8859 42.5307Z" fill="white"/>
</svg>
