<svg width="60" height="60" viewBox="0 0 60 60" fill="none" xmlns="http://www.w3.org/2000/svg">
<path d="M45 51.875H15C13.1766 51.875 11.428 51.1507 10.1386 49.8614C8.84933 48.572 8.125 46.8234 8.125 45V15C8.125 13.1766 8.84933 11.428 10.1386 10.1386C11.428 8.84933 13.1766 8.125 15 8.125H37.15C37.6473 8.125 38.1242 8.32254 38.4758 8.67417C38.8275 9.02581 39.025 9.50272 39.025 10C39.025 10.4973 38.8275 10.9742 38.4758 11.3258C38.1242 11.6775 37.6473 11.875 37.15 11.875H15C14.1712 11.875 13.3763 12.2042 12.7903 12.7903C12.2042 13.3763 11.875 14.1712 11.875 15V45C11.875 45.8288 12.2042 46.6237 12.7903 47.2097C13.3763 47.7958 14.1712 48.125 15 48.125H45C45.8288 48.125 46.6237 47.7958 47.2097 47.2097C47.7958 46.6237 48.125 45.8288 48.125 45V25.725C48.125 25.2277 48.3225 24.7508 48.6742 24.3992C49.0258 24.0475 49.5027 23.85 50 23.85C50.4973 23.85 50.9742 24.0475 51.3258 24.3992C51.6775 24.7508 51.875 25.2277 51.875 25.725V45C51.875 46.8234 51.1507 48.572 49.8614 49.8614C48.572 51.1507 46.8234 51.875 45 51.875Z" fill="#794CAB"/>
<path d="M26.25 38.125C25.7676 38.0881 25.3189 37.8638 25 37.5L17.5 30C17.3329 29.6501 17.2784 29.257 17.3439 28.8749C17.4095 28.4927 17.5919 28.1403 17.8661 27.8661C18.1403 27.592 18.4927 27.4095 18.8749 27.344C19.257 27.2784 19.6501 27.3329 20 27.5L26.175 33.675L47.5 12.5C47.8499 12.3329 48.243 12.2784 48.6251 12.344C49.0073 12.4095 49.3597 12.592 49.6339 12.8661C49.9081 13.1403 50.0905 13.4927 50.1561 13.8749C50.2216 14.257 50.1671 14.6501 50 15L27.5 37.5C27.1811 37.8638 26.7324 38.0881 26.25 38.125Z" fill="#794CAB"/>
</svg>
