<svg width="24" height="24" viewBox="0 0 24 24" fill="none" xmlns="http://www.w3.org/2000/svg">
<path d="M15.85 8.14C16.24 8.14 16.62 8.17 16.99 8.22C16.31 5.25 13.19 3 9.43999 3C5.18999 3 1.73999 5.88 1.73999 9.43C1.73999 11.48 2.88999 13.29 4.67999 14.47L3.66999 16.5L6.42999 15.31C7.01999 15.52 7.63999 15.69 8.29999 15.78C8.20999 15.39 8.15999 14.99 8.15999 14.57C8.14999 11.03 11.6 8.14 15.85 8.14ZM12 5.89C12.1261 5.89 12.2509 5.91483 12.3674 5.96308C12.4838 6.01132 12.5897 6.08203 12.6788 6.17118C12.768 6.26032 12.8387 6.36615 12.8869 6.48262C12.9352 6.5991 12.96 6.72393 12.96 6.85C12.96 6.97607 12.9352 7.1009 12.8869 7.21738C12.8387 7.33385 12.768 7.43968 12.6788 7.52882C12.5897 7.61797 12.4838 7.68868 12.3674 7.73692C12.2509 7.78517 12.1261 7.81 12 7.81C11.7454 7.81 11.5012 7.70886 11.3212 7.52882C11.1411 7.34879 11.04 7.10461 11.04 6.85C11.04 6.59539 11.1411 6.35121 11.3212 6.17118C11.5012 5.99114 11.7454 5.89 12 5.89ZM6.86999 7.82C6.61538 7.82 6.3712 7.71886 6.19117 7.53882C6.01113 7.35879 5.90999 7.11461 5.90999 6.86C5.90999 6.60539 6.01113 6.36121 6.19117 6.18118C6.3712 6.00114 6.61538 5.9 6.86999 5.9C7.1246 5.9 7.36878 6.00114 7.54881 6.18118C7.72885 6.36121 7.82999 6.60539 7.82999 6.86C7.82999 7.11461 7.72885 7.35879 7.54881 7.53882C7.36878 7.71886 7.1246 7.82 6.86999 7.82Z" fill="white"/>
<path d="M22.2599 14.5702C22.2599 11.7302 19.3899 9.43018 15.8499 9.43018C12.3099 9.43018 9.43994 11.7302 9.43994 14.5702C9.43994 17.4102 12.3099 19.7102 15.8499 19.7102C16.4299 19.7102 16.9899 19.6302 17.5199 19.5102L20.9799 21.0002L19.7799 18.6002C21.2799 17.6602 22.2599 16.2202 22.2599 14.5702ZM13.9199 14.2502C13.7301 14.2502 13.5445 14.1939 13.3866 14.0884C13.2287 13.9829 13.1057 13.833 13.033 13.6576C12.9604 13.4821 12.9413 13.2891 12.9784 13.1029C13.0154 12.9167 13.1069 12.7456 13.2411 12.6114C13.3754 12.4771 13.5464 12.3857 13.7327 12.3486C13.9189 12.3116 14.1119 12.3306 14.2873 12.4033C14.4627 12.4759 14.6127 12.599 14.7182 12.7568C14.8236 12.9147 14.8799 13.1003 14.8799 13.2902C14.8899 13.8202 14.4499 14.2502 13.9199 14.2502ZM17.7699 14.2502C17.5153 14.2502 17.2712 14.149 17.0911 13.969C16.9111 13.789 16.8099 13.5448 16.8099 13.2902C16.8099 13.0356 16.9111 12.7914 17.0911 12.6114C17.2712 12.4313 17.5153 12.3302 17.7699 12.3302C18.0246 12.3302 18.2687 12.4313 18.4488 12.6114C18.6288 12.7914 18.7299 13.0356 18.7299 13.2902C18.7299 13.5448 18.6288 13.789 18.4488 13.969C18.2687 14.149 18.0246 14.2502 17.7699 14.2502Z" fill="white"/>
</svg>
